<?xml version="1.0" encoding="UTF-8" standalone="no"?>
<!-- Created with Inkscape (http://www.inkscape.org/) -->

<svg
   width="400"
   height="200"
   viewBox="0 0 105.83333 52.916666"
   version="1.1"
   id="svg1"
   xmlns="http://www.w3.org/2000/svg"
   xmlns:svg="http://www.w3.org/2000/svg">
  <defs
     id="defs1" />
  <g
     id="layer1">
    <text
       xml:space="preserve"
       style="font-size:10.5833px;line-height:1.25;font-family:sans-serif;stroke-width:0.264583"
       x="42.775185"
       y="32.467915"
       id="text1"><tspan
         id="tspan1"
         style="stroke-width:0.264583"
         x="42.775185"
         y="32.467915" /></text>
    <text
       xml:space="preserve"
       style="font-size:10.58333333px;line-height:1.25;font-family:sans-serif;white-space:pre;inline-size:82.6501;fill:#ff2a2a;stroke-width:0.765;stroke-dasharray:none"
       x="11.080319"
       y="24.222094"
       id="text2"
       transform="translate(-2.1768055,-0.25768186)"><tspan
         x="11.080319"
         y="24.222094"
         id="tspan3"> Большая книга</tspan></text>
    <path
       style="fill:#ff00ff;stroke:#a94ad5;stroke-width:0.765;stroke-dasharray:none"
       id="path2"
       d="M 22.16064,9.7919106 8.5801062,12.881305 2.2797268,25.302274 -4.8550779,13.341095 -18.615046,11.187369 -9.444064,0.70555838 -11.647812,-13.046487 1.1549707,-7.5634223 13.552947,-13.908927 12.294521,-0.03839679 Z" />
    <path
       style="fill:#ff00ff;stroke:#a94ad5;stroke-width:0.765;stroke-dasharray:none"
       id="path3"
       d="m 48.701871,12.368729 -6.887492,-5.5655741 -8.682015,1.7423394 3.164824,-8.27025044 -4.339954,-7.71867476 8.84346,0.4542785 5.999777,-6.5127426 2.300735,8.5510099 8.048019,3.6935783 -7.421527,4.8305363 z" />
    <path
       style="fill:#ff00ff;stroke:#a94ad5;stroke-width:0.765;stroke-dasharray:none"
       id="path4"
       d="M 78.077604,12.111047 72.748263,11.80004 69.103961,15.701023 67.75289,10.536412 62.916683,8.2759459 67.411016,5.3950479 68.066378,0.09701976 72.1951,3.4811379 77.436342,2.4672428 75.493699,7.4396409 Z" />
    <path
       style="fill:#ff00ff;stroke:#a94ad5;stroke-width:0.765;stroke-dasharray:none"
       id="path5"
       d="m 97.661423,24.222094 -6.244512,-8.212303 -10.307243,-0.443347 5.880704,-8.4766245 -2.763466,-9.9397726 9.878987,2.97346055 8.599327,-5.69977005 0.22485,10.3143242 8.07814,6.4171214 -9.74003,3.401142 z" />
    <path
       style="fill:#ff00ff;stroke:#a94ad5;stroke-width:0.765;stroke-dasharray:none"
       id="path6"
       d="m 91.992422,35.302415 -6.017185,1.214228 -2.910468,5.404631 -3.014211,-5.347466 -6.039494,-1.097897 4.1543,-4.519143 -0.822145,-6.083168 5.58171,2.554482 5.53138,-2.661709 -0.704613,6.0979 z" />
    <path
       style="fill:#ff00ff;stroke:#a94ad5;stroke-width:0.765;stroke-dasharray:none"
       id="path7"
       d="m 97.146064,50.763327 -3.418326,-3.083348 -4.555978,0.65958 1.876117,-4.203828 -2.035172,-4.129172 4.57783,0.485239 3.298172,-3.211548 0.953138,4.503723 4.073555,2.144325 -3.988759,2.298215 z" />
    <path
       style="fill:#ff00ff;stroke:#a94ad5;stroke-width:0.765;stroke-dasharray:none"
       id="path8"
       d="m 48.186508,34.787052 -4.749149,1.088615 -2.196917,4.348915 -2.502902,-4.180309 -4.814948,-0.745503 3.20227,-3.672188 -0.778885,-4.809661 4.482015,1.910771 4.333571,-2.22703 -0.432234,4.85311 z" />
    <path
       style="fill:#ff00ff;stroke:#a94ad5;stroke-width:0.765;stroke-dasharray:none"
       id="path9"
       d="m 59.009146,56.174644 -4.749185,-8.272122 -9.397859,-1.631874 6.399677,-7.07297 -1.352094,-9.442172 8.704403,3.900787 8.562219,-4.203709 -1.02006,9.483788 6.643837,6.844137 -9.334835,1.960517 z" />
    <path
       style="fill:#ff00ff;stroke:#a94ad5;stroke-width:0.765;stroke-dasharray:none"
       id="path10"
       d="M 12.111048,55.143916 8.4235374,45.331605 -1.4808093,41.898951 6.7117498,35.35975 6.9157861,24.879408 l 8.7507899,5.770862 10.030448,-3.044554 -2.784273,10.105791 5.995122,8.598704 -10.471566,0.47486 z" />
  </g>
</svg>
