<?xml version="1.0" encoding="UTF-8" standalone="no"?>
<!-- Created with Inkscape (http://www.inkscape.org/) -->

<svg
   width="315"
   height="315"
   viewBox="0 0 83.34375 83.34375"
   version="1.1"
   id="svg1"
   xmlns="http://www.w3.org/2000/svg"
   xmlns:svg="http://www.w3.org/2000/svg">
  <defs
     id="defs1" />
  <g
     id="layer1">
    <g
       id="g7"
       transform="translate(4.1229097,11.853365)">
      <path
         style="fill:none;fill-rule:evenodd;stroke:#ea2626;stroke-width:1.465;stroke-dasharray:none;stroke-opacity:1"
         id="path2"
         d="m 34.658207,28.860369 c 0.813945,0.826864 -0.713025,1.505127 -1.374304,1.35283 -1.792023,-0.412717 -2.062501,-2.714367 -1.331356,-4.101437 1.307846,-2.481144 4.655397,-2.746658 6.828571,-1.309884 3.189219,2.108523 3.451335,6.622849 1.28841,9.555705 -2.88284,3.909035 -8.599691,4.164773 -12.282839,1.266937 -4.634865,-3.646632 -4.882744,-10.581011 -1.245463,-15.009973 4.405235,-5.364065 12.564854,-5.603341 17.737106,-1.22399 6.09532,5.160915 6.325587,14.55027 1.202517,20.46424 -5.914789,6.827912 -16.536737,7.048934 -23.191374,1.181043 -7.561422,-6.667469 -7.773048,-18.523939 -1.15957,-25.918507 7.419323,-8.2955876 20.511681,-8.4977217 28.645641,-1.138096 9.030238,8.170579 9.222813,22.499827 1.116623,31.372775 -0.98188,1.074755 -2.065415,2.056282 -3.230872,2.928532" />
      <path
         style="fill:none;fill-rule:evenodd;stroke:#4ef12e;stroke-width:2.265;stroke-dasharray:none;stroke-opacity:1"
         id="path3"
         d="m 33.62748,27.443119 c -0.865624,0.490951 -1.08886,-0.924626 -0.815992,-1.438724 0.739454,-1.393173 2.706411,-1.10671 3.693439,-0.19326 1.765562,1.633949 1.242981,4.466352 -0.429472,5.948156 -2.454391,2.174606 -6.252735,1.390393 -8.202871,-1.052204 -2.599226,-3.255598 -1.542981,-8.048841 1.674936,-10.457588 4.049419,-3.031162 9.849662,-1.69833 12.712303,2.297668 3.467043,4.839689 1.855296,11.653157 -2.9204,14.96702 -5.627992,3.905272 -13.45832,2.013278 -17.221735,-3.543132 -4.345012,-6.415096 -2.17194,-15.264598 4.165864,-19.476452 7.201415,-4.7857754 17.071657,-2.331074 21.731167,4.788596 5.227267,7.987195 2.490553,18.879286 -5.411328,23.985884 -8.772585,5.669291 -20.687342,2.650287 -26.240599,-6.03406"
         transform="translate(1.0307274,1.0307274)" />
      <path
         style="fill:none;fill-opacity:1;stroke:#a94ad5;stroke-width:1.265;stroke-dasharray:none;stroke-opacity:1"
         id="path6"
         d="M 49.7326,40.842576 30.776339,35.909571 14.869891,47.340198 13.703652,27.78734 -2.0828836,16.191667 16.152602,9.0403415 22.302434,-9.5568057 34.738824,5.5762903 54.326165,5.6782944 43.776791,22.182387 Z"
         transform="rotate(11.806463,-11.961206,67.662815)" />
    </g>
  </g>
</svg>
